# Blender 4.1.1
# www.blender.org
mtllib knife and fork.mtl
o Plane
v 0.969012 -0.024640 -2.494601
v 0.858002 -0.024640 -0.163702
v 1.102817 -0.024640 -1.246746
v 1.124178 -0.024640 -0.237457
v 0.879722 0.000000 -0.064810
v 0.796282 -0.024640 -0.262594
v 0.660306 -0.024640 -0.324401
v 0.680393 -0.024640 -1.205156
v 0.785981 -0.024640 -1.931392
v 0.899294 -0.024640 -2.369194
v 1.047002 -0.024640 -2.556449
v 1.136112 -0.024640 -2.576318
v 1.144260 -0.024640 -2.555203
v 1.142177 -0.024640 -2.570954
v 1.220425 0.000000 2.148465
v 1.177246 0.000000 2.310434
v 1.222073 0.000000 2.226645
v 1.205981 0.000000 2.287008
v 0.870767 -0.024640 -0.105583
v 1.126882 -0.024640 -0.170410
v 1.129475 0.000000 -0.106132
v 0.877843 0.000000 -0.027429
v 1.106426 0.000000 2.358255
v 1.008032 0.000000 2.390516
v 1.078001 0.000000 2.377328
v 1.037388 0.000000 2.390644
v 0.983836 0.000000 2.390315
v 0.885359 0.000000 2.358066
v 0.954479 0.000000 2.389958
v 0.913833 0.000000 2.376648
v 0.810512 0.000000 2.308920
v 0.768512 0.000000 2.148183
v 0.782238 0.000000 2.289882
v 0.764902 0.000000 2.223538
v 0.969012 -0.055360 -2.494601
v 0.858002 -0.055360 -0.163702
v 1.102817 -0.055360 -1.246746
v 1.124178 -0.055360 -0.237457
v 0.879722 -0.080000 -0.064810
v 0.796282 -0.055360 -0.262594
v 0.660306 -0.055360 -0.324401
v 0.680393 -0.055360 -1.205156
v 0.785981 -0.055360 -1.931392
v 0.899294 -0.055360 -2.369194
v 1.047002 -0.055360 -2.556449
v 1.136112 -0.055360 -2.576318
v 1.144260 -0.055360 -2.555203
v 1.142177 -0.055360 -2.570954
v 1.220425 -0.080000 2.148465
v 1.177246 -0.080000 2.310434
v 1.222073 -0.080000 2.226645
v 1.205981 -0.080000 2.287008
v 0.870767 -0.055360 -0.105583
v 1.126882 -0.055360 -0.170410
v 1.129475 -0.080000 -0.106132
v 0.877843 -0.080000 -0.027429
v 1.106426 -0.080000 2.358255
v 1.008032 -0.080000 2.390516
v 1.078001 -0.080000 2.377328
v 1.037388 -0.080000 2.390644
v 0.983836 -0.080000 2.390315
v 0.885359 -0.080000 2.358066
v 0.954479 -0.080000 2.389958
v 0.913833 -0.080000 2.376648
v 0.810512 -0.080000 2.308920
v 0.768512 -0.080000 2.148183
v 0.782238 -0.080000 2.289882
v 0.764902 -0.080000 2.223538
vn -0.0678 0.9440 -0.3229
vn -0.0000 1.0000 -0.0000
vn -0.0678 -0.9440 -0.3229
vn -0.0000 -1.0000 -0.0000
vn -0.9767 -0.0000 0.2145
vn 0.9998 -0.0000 -0.0212
vn -0.8483 -0.0000 0.5295
vn -0.4138 -0.0000 0.9104
vn -0.9997 -0.0000 -0.0228
vn -0.9896 -0.0000 -0.1439
vn -0.9681 -0.0000 -0.2506
vn -0.8740 -0.0000 -0.4859
vn -0.6214 -0.0000 -0.7835
vn 0.9995 -0.0000 0.0317
vn 0.9914 -0.0000 -0.1311
vn 0.6625 -0.0000 -0.7491
vn -0.2176 -0.0000 -0.9760
vn 0.9998 -0.0000 -0.0211
vn 0.9663 -0.0000 0.2576
vn 0.6319 -0.0000 0.7751
vn 0.9992 -0.0000 -0.0403
vn -0.9987 -0.0000 -0.0502
vn -0.9989 -0.0000 -0.0478
vn -0.9675 -0.0000 0.2528
vn -0.5585 -0.0000 0.8295
vn -0.5489 -0.0000 0.8359
vn -0.5465 -0.0000 0.8375
vn -0.3112 -0.0000 0.9503
vn -0.0121 -0.0000 0.9999
vn -0.0083 -0.0000 1.0000
vn -0.0043 -0.0000 1.0000
vn 0.3116 -0.0000 0.9502
vn 0.5572 -0.0000 0.8304
vn 0.5596 -0.0000 0.8288
vt 0.363441 0.532771
vt 0.231260 0.520304
vt 0.239861 0.512463
vt 0.238922 0.505275
vt 0.364738 0.520410
vt 0.184256 0.086888
vt 0.182451 0.072396
vt 0.191119 0.059638
vt 0.205256 0.055977
vt 0.242679 0.046526
vt 0.256916 0.042952
vt 0.277240 0.040393
vt 0.291918 0.040324
vt 0.304016 0.040285
vt 0.318694 0.040261
vt 0.339000 0.042822
vt 0.353213 0.046489
vt 0.388623 0.055686
vt 0.402991 0.060191
vt 0.411037 0.071799
vt 0.410213 0.086834
vt 0.362089 0.545665
vt 0.351408 0.739759
vt 0.372130 0.991385
vt 0.371190 0.994336
vt 0.368509 0.995097
vt 0.328501 0.987779
vt 0.284506 0.979731
vt 0.249647 0.955614
vt 0.192990 0.871422
vt 0.140196 0.731761
vt 0.130153 0.562385
vt 0.198141 0.550499
vt 0.219001 0.531481
s 0
usemtl Material.001
f 20/1/1 19/2/1 5/3/1 22/4/1 21/5/1
f 21/5/2 22/4/2 32/6/2 34/7/2 33/8/2 31/9/2 28/10/2 30/11/2 29/12/2 27/13/2 24/14/2 26/15/2 25/16/2 23/17/2 16/18/2 18/19/2 17/20/2 15/21/2
f 4/22/2 3/23/2 13/24/2 14/25/2 12/26/2 11/27/2 1/28/2 10/29/2 9/30/2 8/31/2 7/32/2 6/33/2 2/34/2 19/2/2 20/1/2
f 54/1/3 55/5/3 56/4/3 39/3/3 53/2/3
f 55/5/4 49/21/4 51/20/4 52/19/4 50/18/4 57/17/4 59/16/4 60/15/4 58/14/4 61/13/4 63/12/4 64/11/4 62/10/4 65/9/4 67/8/4 68/7/4 66/6/4 56/4/4
f 38/22/4 54/1/4 53/2/4 36/34/4 40/33/4 41/32/4 42/31/4 43/30/4 44/29/4 35/28/4 45/27/4 46/26/4 48/25/4 47/24/4 37/23/4
f 19/2/5 2/34/5 36/34/5 53/2/5
f 3/23/6 4/22/6 38/22/6 37/23/6
f 2/34/7 6/33/7 40/33/7 36/34/7
f 6/33/8 7/32/8 41/32/8 40/33/8
f 7/32/9 8/31/9 42/31/9 41/32/9
f 8/31/10 9/30/10 43/30/10 42/31/10
f 9/30/11 10/29/11 44/29/11 43/30/11
f 10/29/12 1/28/12 35/28/12 44/29/12
f 1/28/13 11/27/13 45/27/13 35/28/13
f 13/24/14 3/23/14 37/23/14 47/24/14
f 14/25/15 13/24/15 47/24/15 48/25/15
f 12/26/16 14/25/16 48/25/16 46/26/16
f 11/27/17 12/26/17 46/26/17 45/27/17
f 15/21/18 17/20/18 51/20/18 49/21/18
f 17/20/19 18/19/19 52/19/19 51/20/19
f 18/19/20 16/18/20 50/18/20 52/19/20
f 5/3/5 19/2/5 53/2/5 39/3/5
f 20/1/21 21/5/21 55/5/21 54/1/21
f 21/5/21 15/21/21 49/21/21 55/5/21
f 4/22/21 20/1/21 54/1/21 38/22/21
f 32/6/22 22/4/22 56/4/22 66/6/22
f 34/7/23 32/6/23 66/6/23 68/7/23
f 33/8/24 34/7/24 68/7/24 67/8/24
f 31/9/25 33/8/25 67/8/25 65/9/25
f 28/10/26 31/9/26 65/9/26 62/10/26
f 30/11/27 28/10/27 62/10/27 64/11/27
f 29/12/28 30/11/28 64/11/28 63/12/28
f 27/13/29 29/12/29 63/12/29 61/13/29
f 24/14/30 27/13/30 61/13/30 58/14/30
f 26/15/31 24/14/31 58/14/31 60/15/31
f 25/16/32 26/15/32 60/15/32 59/16/32
f 23/17/33 25/16/33 59/16/33 57/17/33
f 16/18/34 23/17/34 57/17/34 50/18/34
f 22/4/22 5/3/22 39/3/22 56/4/22
o Plane.001
v -0.970286 -0.031642 2.394306
v -0.970286 -0.360000 -1.149674
v -1.061449 -0.031642 2.379231
v -1.144952 -0.031642 2.350437
v -1.183824 -0.031642 2.315165
v -1.201100 -0.031642 2.287810
v -1.205420 -0.031642 2.248219
v -1.203260 -0.031642 2.165436
v -1.086161 -0.089211 0.624935
v -1.057789 -0.112286 -0.497270
v -1.075844 -0.142160 -0.651846
v -1.127431 -0.175444 -0.713751
v -1.197074 -0.220000 -0.796290
v -1.225447 -0.270000 -0.871091
v -1.225447 -0.300000 -0.940734
v -1.166121 0.070000 -2.272293
v -1.135169 0.070000 -2.272293
v -1.135169 -0.360000 -1.206407
v -1.128097 -0.360000 -1.169606
v -1.110101 -0.360000 -1.155209
v -1.092105 -0.360000 -1.157608
v -1.081907 -0.360000 -1.171406
v -1.075908 -0.360000 -1.211597
v -1.043942 0.070000 -2.271778
v -1.024938 0.070000 -2.272293
v -0.999024 -0.360000 -1.215324
v -0.992977 -0.360000 -1.179908
v -0.984339 -0.360000 -1.158312
v -0.970286 -0.142160 -0.649632
v -0.970286 -0.270000 -0.874570
v -1.225447 -0.270000 -0.874570
v -0.970286 -0.220000 -0.794610
v -0.970286 -0.340000 -1.029331
v -1.221490 -0.340000 -1.029331
v -0.970286 -0.360000 -1.130064
v -1.217014 -0.360000 -1.129555
v -1.135169 -0.360000 -1.236242
v -1.212223 -0.360000 -1.236831
v -0.999536 -0.360000 -1.236289
v -1.075183 -0.360000 -1.235653
v -1.135169 -0.340000 -1.410243
v -1.204479 -0.340000 -1.410243
v -1.003830 -0.340000 -1.412064
v -1.069866 -0.340000 -1.411974
v -1.135169 -0.290000 -1.589917
v -1.196529 -0.290000 -1.588246
v -1.008452 -0.290000 -1.601255
v -1.064313 -0.290000 -1.596155
v -1.135169 -0.220000 -1.759227
v -1.189151 -0.220000 -1.753448
v -1.012629 -0.220000 -1.772232
v -1.059031 -0.220000 -1.771345
v -1.135169 -0.140000 -1.923456
v -1.016549 -0.140000 -1.932682
v -1.181720 -0.140000 -1.919836
v -1.054255 -0.140000 -1.929749
v -1.049461 -0.040000 -2.088746
v -1.020388 -0.040000 -2.089839
v -1.135169 -0.040000 -2.085524
v -1.174386 -0.040000 -2.084050
v -1.023629 0.030000 -2.207512
v -1.045471 0.030000 -2.207654
v -1.135169 0.030000 -2.208237
v -1.168624 0.030000 -2.208454
v -1.062535 -0.110601 -0.308526
v -0.970286 -0.110601 -0.308526
v -0.970286 -0.112286 -0.497270
v -1.040900 -0.112286 -0.497270
v -0.879123 -0.031642 2.379231
v -0.795620 -0.031642 2.350437
v -0.756748 -0.031642 2.315165
v -0.739472 -0.031642 2.287810
v -0.735153 -0.031642 2.248219
v -0.737312 -0.031642 2.165436
v -0.854411 -0.089211 0.624935
v -0.882783 -0.112286 -0.497270
v -0.864728 -0.142160 -0.651846
v -0.813141 -0.175444 -0.713751
v -0.743498 -0.220000 -0.796290
v -0.715125 -0.270000 -0.871091
v -0.715125 -0.300000 -0.940734
v -0.774451 0.070000 -2.272293
v -0.805403 0.070000 -2.272293
v -0.805403 -0.360000 -1.206407
v -0.812475 -0.360000 -1.169606
v -0.830471 -0.360000 -1.155209
v -0.848467 -0.360000 -1.157608
v -0.858665 -0.360000 -1.171406
v -0.864664 -0.360000 -1.211597
v -0.896630 0.070000 -2.271778
v -0.915634 0.070000 -2.272293
v -0.941548 -0.360000 -1.215324
v -0.947595 -0.360000 -1.179908
v -0.956233 -0.360000 -1.158312
v -0.715125 -0.270000 -0.874570
v -0.719082 -0.340000 -1.029331
v -0.723558 -0.360000 -1.129555
v -0.805403 -0.360000 -1.236242
v -0.728349 -0.360000 -1.236831
v -0.941036 -0.360000 -1.236289
v -0.865389 -0.360000 -1.235653
v -0.805403 -0.340000 -1.410243
v -0.736094 -0.340000 -1.410243
v -0.936742 -0.340000 -1.412064
v -0.870706 -0.340000 -1.411974
v -0.805403 -0.290000 -1.589917
v -0.744043 -0.290000 -1.588246
v -0.932120 -0.290000 -1.601255
v -0.876259 -0.290000 -1.596155
v -0.805403 -0.220000 -1.759227
v -0.751421 -0.220000 -1.753448
v -0.927943 -0.220000 -1.772232
v -0.881541 -0.220000 -1.771345
v -0.805403 -0.140000 -1.923456
v -0.924023 -0.140000 -1.932682
v -0.758852 -0.140000 -1.919836
v -0.886317 -0.140000 -1.929749
v -0.891111 -0.040000 -2.088746
v -0.920184 -0.040000 -2.089839
v -0.805403 -0.040000 -2.085524
v -0.766186 -0.040000 -2.084050
v -0.916943 0.030000 -2.207512
v -0.895101 0.030000 -2.207654
v -0.805403 0.030000 -2.208237
v -0.771948 0.030000 -2.208454
v -0.878037 -0.110601 -0.308526
v -0.899673 -0.112286 -0.497270
v -0.970286 -0.155831 2.394951
v -0.970286 -0.380000 -1.149674
v -1.062400 -0.155691 2.379875
v -1.145903 -0.155691 2.351081
v -1.184774 -0.155691 2.315809
v -1.202051 -0.155691 2.288454
v -1.206370 -0.155691 2.248863
v -1.204211 -0.155691 2.166080
v -1.087112 -0.158127 0.625579
v -1.057807 -0.173848 -0.487072
v -1.075906 -0.172879 -0.621105
v -1.127506 -0.197571 -0.677307
v -1.197072 -0.231523 -0.757058
v -1.225421 -0.281024 -0.831042
v -1.225445 -0.313551 -0.905430
v -1.166098 0.058912 -2.312241
v -1.135146 0.058912 -2.312241
v -1.135169 -0.380000 -1.206407
v -1.128097 -0.380000 -1.169606
v -1.110101 -0.380000 -1.155209
v -1.092105 -0.380000 -1.157608
v -1.081907 -0.380000 -1.171406
v -1.075908 -0.380000 -1.211597
v -1.044006 0.058852 -2.311629
v -1.025002 0.058852 -2.312145
v -0.999024 -0.380000 -1.215324
v -0.992977 -0.380000 -1.179908
v -0.984339 -0.380000 -1.158312
v -0.970286 -0.174804 -0.621894
v -0.970286 -0.282327 -0.836772
v -1.225433 -0.282327 -0.836771
v -0.970286 -0.232045 -0.756290
v -0.970286 -0.356089 -1.000819
v -1.221487 -0.355964 -1.000418
v -0.970286 -0.379506 -1.119462
v -1.217012 -0.379438 -1.118255
v -1.135165 -0.379819 -1.242680
v -1.212219 -0.379841 -1.242864
v -0.999541 -0.379835 -1.242440
v -1.075188 -0.379840 -1.241721
v -1.135195 -0.358176 -1.430268
v -1.204502 -0.358258 -1.429838
v -1.003930 -0.358313 -1.431357
v -1.069965 -0.358323 -1.431211
v -1.135392 -0.305421 -1.620479
v -1.196741 -0.305500 -1.618577
v -1.008718 -0.305676 -1.631057
v -1.064576 -0.305731 -1.625791
v -1.135658 -0.233562 -1.794486
v -1.189630 -0.233607 -1.788608
v -1.012945 -0.233598 -1.807422
v -1.059348 -0.233608 -1.806514
v -1.135669 -0.152138 -1.961587
v -1.016904 -0.151913 -1.971229
v -1.182225 -0.152197 -1.957856
v -1.054608 -0.151939 -1.968249
v -1.049739 -0.051249 -2.128429
v -1.020664 -0.051253 -2.129515
v -1.135431 -0.051543 -2.124718
v -1.174655 -0.051527 -2.123271
v -1.023725 0.018665 -2.247057
v -1.045568 0.018664 -2.247199
v -1.135216 0.018529 -2.247557
v -1.168673 0.018516 -2.247752
v -1.063029 -0.167567 -0.307344
v -0.970286 -0.167583 -0.307322
v -0.970286 -0.173973 -0.487521
v -1.040917 -0.173973 -0.487521
v -0.878172 -0.155691 2.379875
v -0.794669 -0.155691 2.351081
v -0.755798 -0.155691 2.315809
v -0.738521 -0.155691 2.288454
v -0.734202 -0.155691 2.248863
v -0.736362 -0.155691 2.166080
v -0.853460 -0.158127 0.625579
v -0.882765 -0.173848 -0.487072
v -0.864666 -0.172879 -0.621105
v -0.813066 -0.197571 -0.677307
v -0.743500 -0.231523 -0.757058
v -0.715151 -0.281024 -0.831042
v -0.715127 -0.313551 -0.905430
v -0.774474 0.058912 -2.312241
v -0.805426 0.058912 -2.312241
v -0.805403 -0.380000 -1.206407
v -0.812475 -0.380000 -1.169606
v -0.830471 -0.380000 -1.155209
v -0.848467 -0.380000 -1.157608
v -0.858665 -0.380000 -1.171406
v -0.864664 -0.380000 -1.211597
v -0.896566 0.058852 -2.311629
v -0.915570 0.058852 -2.312145
v -0.941548 -0.380000 -1.215324
v -0.947595 -0.380000 -1.179908
v -0.956233 -0.380000 -1.158312
v -0.715139 -0.282327 -0.836771
v -0.719085 -0.355964 -1.000418
v -0.723560 -0.379438 -1.118255
v -0.805407 -0.379819 -1.242680
v -0.728353 -0.379841 -1.242864
v -0.941031 -0.379835 -1.242440
v -0.865384 -0.379840 -1.241721
v -0.805377 -0.358176 -1.430268
v -0.736070 -0.358258 -1.429838
v -0.936642 -0.358313 -1.431357
v -0.870607 -0.358323 -1.431211
v -0.805180 -0.305421 -1.620479
v -0.743831 -0.305500 -1.618577
v -0.931854 -0.305676 -1.631057
v -0.875996 -0.305731 -1.625791
v -0.804914 -0.233562 -1.794486
v -0.750942 -0.233607 -1.788608
v -0.927627 -0.233598 -1.807422
v -0.881224 -0.233608 -1.806514
v -0.804903 -0.152138 -1.961587
v -0.923668 -0.151913 -1.971229
v -0.758346 -0.152197 -1.957856
v -0.885964 -0.151939 -1.968249
v -0.890833 -0.051249 -2.128429
v -0.919908 -0.051253 -2.129515
v -0.805141 -0.051543 -2.124718
v -0.765917 -0.051527 -2.123271
v -0.916847 0.018665 -2.247057
v -0.895004 0.018664 -2.247199
v -0.805356 0.018529 -2.247557
v -0.771899 0.018516 -2.247752
v -0.877543 -0.167567 -0.307344
v -0.899655 -0.173973 -0.487521
vn -0.0000 1.0000 -0.0000
vn 0.0022 0.9816 -0.1912
vn -0.0020 0.8458 -0.5335
vn 0.0058 0.8796 -0.4757
vn -0.0001 0.9111 -0.4121
vn -0.0002 0.9808 -0.1952
vn -0.0005 0.9934 0.1144
vn 0.0006 0.9936 0.1129
vn 0.0034 0.9630 0.2693
vn 0.0110 0.9659 0.2587
vn 0.0250 0.9220 0.3864
vn 0.0219 0.9268 0.3749
vn 0.0408 0.8990 0.4360
vn 0.0204 0.8936 0.4484
vn 0.0322 0.8446 0.5344
vn 0.0311 0.8519 0.5229
vn 0.0085 0.8700 0.4931
vn 0.0095 0.8606 0.5093
vn 0.0048 0.8497 0.5273
vn -0.0018 0.8478 0.5303
vn -0.0033 0.9996 -0.0298
vn -0.0000 1.0000 -0.0089
vn -0.0022 0.9816 -0.1912
vn 0.0020 0.8458 -0.5335
vn -0.0058 0.8796 -0.4757
vn 0.0001 0.9111 -0.4121
vn 0.0002 0.9808 -0.1952
vn 0.0005 0.9934 0.1144
vn -0.0006 0.9936 0.1129
vn -0.0034 0.9630 0.2693
vn -0.0110 0.9659 0.2587
vn -0.0250 0.9220 0.3864
vn -0.0219 0.9268 0.3749
vn -0.0408 0.8990 0.4360
vn -0.0204 0.8936 0.4484
vn -0.0322 0.8446 0.5344
vn -0.0311 0.8519 0.5229
vn -0.0085 0.8700 0.4931
vn -0.0095 0.8606 0.5093
vn -0.0048 0.8497 0.5273
vn 0.0018 0.8478 0.5303
vn 0.0033 0.9996 -0.0298
vn -0.0014 -1.0000 0.0044
vn -0.0106 -0.9999 -0.0001
vn 0.0023 -0.8462 0.5329
vn -0.0055 -0.9184 0.3956
vn 0.0007 -0.9120 0.4102
vn 0.0002 -0.9809 0.1945
vn 0.0005 -0.9934 -0.1146
vn -0.0006 -0.9936 -0.1130
vn -0.0036 -0.9633 -0.2683
vn -0.0109 -0.9661 -0.2579
vn -0.0250 -0.9222 -0.3858
vn -0.0220 -0.9270 -0.3744
vn -0.0407 -0.8990 -0.4361
vn -0.0203 -0.8936 -0.4484
vn -0.0322 -0.8447 -0.5342
vn -0.0311 -0.8520 -0.5227
vn -0.0085 -0.8699 -0.4931
vn -0.0095 -0.8606 -0.5093
vn -0.0048 -0.8497 -0.5273
vn 0.0018 -0.8479 -0.5302
vn -0.0186 -0.9998 0.0034
vn -0.0007 -0.9994 0.0354
vn 0.0014 -1.0000 0.0044
vn 0.0106 -0.9999 -0.0001
vn -0.0023 -0.8462 0.5329
vn 0.0055 -0.9184 0.3956
vn -0.0007 -0.9120 0.4102
vn -0.0002 -0.9809 0.1945
vn -0.0005 -0.9934 -0.1146
vn 0.0006 -0.9936 -0.1130
vn 0.0036 -0.9633 -0.2683
vn 0.0109 -0.9661 -0.2579
vn 0.0250 -0.9222 -0.3858
vn 0.0220 -0.9270 -0.3744
vn 0.0407 -0.8990 -0.4361
vn 0.0203 -0.8936 -0.4484
vn 0.0322 -0.8447 -0.5342
vn 0.0311 -0.8520 -0.5227
vn 0.0085 -0.8699 -0.4931
vn 0.0095 -0.8606 -0.5093
vn 0.0048 -0.8497 -0.5273
vn -0.0018 -0.8479 -0.5302
vn 0.0186 -0.9998 0.0034
vn 0.0007 -0.9994 0.0354
vn -0.1623 0.0057 0.9867
vn -0.3260 0.0074 0.9453
vn -0.6720 0.0090 0.7405
vn -0.8455 0.0093 0.5340
vn -0.9941 0.0082 0.1084
vn -0.9996 0.0075 -0.0261
vn -0.9971 0.0093 -0.0760
vn -0.9996 0.0017 -0.0271
vn -0.9915 0.0536 0.1188
vn -0.7541 0.5169 0.4051
vn -0.7029 0.6502 0.2884
vn -0.9234 0.3690 0.1053
vn -1.0000 -0.0002 0.0002
vn -0.9990 0.0437 -0.0121
vn -0.0000 0.9636 -0.2675
vn 1.0000 0.0001 0.0001
vn 0.9820 -0.0000 -0.1887
vn 0.6247 -0.0000 -0.7809
vn -0.1322 -0.0000 -0.9912
vn -0.8042 -0.0000 -0.5944
vn -0.9890 -0.0000 -0.1476
vn -0.9996 0.0287 -0.0061
vn -0.0073 0.9630 -0.2694
vn 0.9998 0.0032 -0.0214
vn 0.9857 -0.0000 -0.1683
vn 0.9285 -0.0000 -0.3714
vn 0.5237 -0.0000 -0.8519
vn -1.0000 0.0018 0.0010
vn -0.9986 -0.0475 -0.0217
vn -0.9987 -0.0381 -0.0334
vn 1.0000 -0.0005 -0.0001
vn -0.9991 -0.0057 -0.0413
vn 0.9997 0.0122 -0.0224
vn -0.9996 0.0042 -0.0267
vn 1.0000 -0.0046 -0.0018
vn -0.9988 0.0272 -0.0397
vn 0.9997 0.0175 -0.0196
vn -0.9994 0.0203 -0.0265
vn 0.9999 -0.0117 -0.0056
vn -0.9983 0.0497 -0.0289
vn 0.9997 0.0177 -0.0169
vn -0.9991 0.0375 -0.0187
vn 0.9998 -0.0160 -0.0078
vn -0.9979 0.0619 -0.0169
vn 0.9997 0.0180 -0.0153
vn -0.9989 0.0451 -0.0115
vn 0.9999 -0.0115 -0.0063
vn 0.9998 0.0172 -0.0132
vn -0.9976 0.0690 -0.0109
vn -0.9989 0.0455 -0.0067
vn -0.9991 0.0414 -0.0042
vn 0.9996 0.0251 -0.0118
vn 1.0000 -0.0056 -0.0023
vn -0.9981 0.0602 -0.0085
vn 0.9998 0.0199 -0.0076
vn -0.9990 0.0447 -0.0080
vn 1.0000 -0.0009 -0.0000
vn -0.9981 0.0598 -0.0135
vn -0.9996 0.0111 -0.0257
vn 0.1623 0.0057 0.9867
vn 0.3260 0.0074 0.9453
vn 0.6720 0.0090 0.7405
vn 0.8455 0.0093 0.5340
vn 0.9941 0.0082 0.1084
vn 0.9996 0.0075 -0.0261
vn 0.9971 0.0093 -0.0760
vn 0.9996 0.0017 -0.0271
vn 0.9915 0.0536 0.1188
vn 0.7541 0.5169 0.4051
vn 0.7029 0.6502 0.2884
vn 0.9234 0.3690 0.1053
vn 1.0000 -0.0002 0.0002
vn 0.9990 0.0437 -0.0121
vn -1.0000 0.0001 0.0001
vn -0.9820 -0.0000 -0.1887
vn -0.6247 -0.0000 -0.7809
vn 0.1322 -0.0000 -0.9912
vn 0.8042 -0.0000 -0.5944
vn 0.9890 -0.0000 -0.1476
vn 0.9996 0.0287 -0.0061
vn 0.0073 0.9630 -0.2694
vn -0.9998 0.0032 -0.0214
vn -0.9857 -0.0000 -0.1683
vn -0.9285 -0.0000 -0.3714
vn -0.5237 -0.0000 -0.8519
vn 1.0000 0.0018 0.0010
vn 0.9986 -0.0475 -0.0217
vn 0.9987 -0.0381 -0.0334
vn -1.0000 -0.0005 -0.0001
vn 0.9991 -0.0057 -0.0413
vn -0.9997 0.0122 -0.0224
vn 0.9996 0.0042 -0.0267
vn -1.0000 -0.0046 -0.0018
vn 0.9988 0.0272 -0.0397
vn -0.9997 0.0175 -0.0196
vn 0.9994 0.0203 -0.0265
vn -0.9999 -0.0117 -0.0056
vn 0.9983 0.0497 -0.0289
vn -0.9997 0.0177 -0.0169
vn 0.9991 0.0375 -0.0187
vn -0.9998 -0.0160 -0.0078
vn 0.9979 0.0619 -0.0169
vn -0.9997 0.0180 -0.0153
vn 0.9989 0.0451 -0.0115
vn -0.9999 -0.0115 -0.0063
vn -0.9998 0.0172 -0.0132
vn 0.9976 0.0690 -0.0109
vn 0.9989 0.0455 -0.0067
vn 0.9991 0.0414 -0.0042
vn -0.9996 0.0251 -0.0118
vn -1.0000 -0.0056 -0.0023
vn 0.9981 0.0602 -0.0085
vn -0.9998 0.0199 -0.0076
vn 0.9990 0.0447 -0.0080
vn -1.0000 -0.0009 -0.0000
vn 0.9981 0.0598 -0.0135
vn 0.9996 0.0111 -0.0257
vt 0.500000 0.739515
vt 0.492974 0.741315
vt 0.488655 0.745814
vt 0.485631 0.753193
vt 0.485375 0.757560
vt 0.447552 0.757428
vt 0.447189 0.752416
vt 0.444190 0.744043
vt 0.439091 0.741168
vt 0.430092 0.740669
vt 0.421094 0.743668
vt 0.417558 0.751335
vt 0.417558 0.757551
vt 0.379031 0.757673
vt 0.376636 0.735324
vt 0.500000 0.735430
vt 0.500000 0.635340
vt 0.447221 0.635801
vt 0.456249 0.604634
vt 0.466024 0.604692
vt 0.500000 0.602180
vt 0.500000 0.682202
vt 0.372420 0.682202
vt 0.372420 0.681477
vt 0.386606 0.665894
vt 0.500000 0.665544
vt 0.421427 0.648698
vt 0.500000 0.714444
vt 0.374398 0.714444
vt 0.372420 0.695986
vt 0.417558 0.793801
vt 0.382904 0.793801
vt 0.483228 0.794180
vt 0.450210 0.794161
vt 0.417558 0.831233
vt 0.386879 0.830884
vt 0.480917 0.833595
vt 0.452986 0.832532
vt 0.417558 0.866506
vt 0.390568 0.865302
vt 0.478829 0.869215
vt 0.455627 0.869030
vt 0.417558 0.900720
vt 0.394283 0.899966
vt 0.476869 0.902642
vt 0.458016 0.902031
vt 0.474949 0.935383
vt 0.460412 0.935155
vt 0.417558 0.934484
vt 0.397950 0.934177
vt 0.417558 0.961508
vt 0.400831 0.961055
vt 0.473329 0.963018
vt 0.462407 0.962722
vt 0.472674 0.974187
vt 0.463172 0.973287
vt 0.417558 0.973267
vt 0.402082 0.972729
vt 0.500000 0.563202
vt 0.453876 0.565350
vt 0.442062 0.369805
vt 0.383513 0.048868
vt 0.382433 0.031621
vt 0.384593 0.023373
vt 0.393231 0.017674
vt 0.412667 0.010326
vt 0.454418 0.004327
vt 0.500000 0.001186
s 0
usemtl Material.001
f 70/35/35 96/36/35 95/37/35 94/38/35 107/39/35 108/40/35 91/41/35 90/42/35 89/43/35 88/44/35 87/45/35 86/46/35 105/47/35 106/48/35 104/49/35 103/50/35
f 97/51/36 79/52/36 78/53/36 136/54/36 135/55/36
f 98/56/37 99/57/37 82/58/37 81/59/37 100/60/37
f 100/60/38 81/59/38 80/61/38 79/52/38 97/51/38
f 101/62/39 102/63/39 83/64/39 99/57/39 98/56/39
f 103/50/40 104/49/40 102/63/40 101/62/40
f 106/48/41 105/47/41 109/65/41 110/66/41
f 108/40/42 107/39/42 111/67/42 112/68/42
f 110/66/43 109/65/43 113/69/43 114/70/43
f 112/68/44 111/67/44 115/71/44 116/72/44
f 114/70/45 113/69/45 117/73/45 118/74/45
f 116/72/46 115/71/46 119/75/46 120/76/46
f 118/74/47 117/73/47 121/77/47 123/78/47
f 120/76/48 119/75/48 122/79/48 124/80/48
f 124/80/49 122/79/49 126/81/49 125/82/49
f 123/78/50 121/77/50 127/83/50 128/84/50
f 128/84/51 127/83/51 131/85/51 132/86/51
f 125/82/52 126/81/52 129/87/52 130/88/52
f 130/88/53 129/87/53 93/89/53 92/90/53
f 132/86/54 131/85/54 85/91/54 84/92/54
f 134/93/55 133/94/55 77/95/55 76/96/55 75/97/55 74/98/55 73/99/55 72/100/55 71/101/55 69/102/55
f 135/55/56 136/54/56 78/53/56 133/94/56 134/93/56
f 70/35/35 103/50/35 165/49/35 167/48/35 166/47/35 152/46/35 153/45/35 154/44/35 155/43/35 156/42/35 157/41/35 169/40/35 168/39/35 160/38/35 161/37/35 162/36/35
f 97/51/57 135/55/57 195/54/57 144/53/57 145/52/57
f 98/56/58 100/60/58 147/59/58 148/58/58 163/57/58
f 100/60/59 97/51/59 145/52/59 146/61/59 147/59/59
f 101/62/60 98/56/60 163/57/60 149/64/60 164/63/60
f 103/50/61 101/62/61 164/63/61 165/49/61
f 167/48/62 171/66/62 170/65/62 166/47/62
f 169/40/63 173/68/63 172/67/63 168/39/63
f 171/66/64 175/70/64 174/69/64 170/65/64
f 173/68/65 177/72/65 176/71/65 172/67/65
f 175/70/66 179/74/66 178/73/66 174/69/66
f 177/72/67 181/76/67 180/75/67 176/71/67
f 179/74/68 184/78/68 182/77/68 178/73/68
f 181/76/69 185/80/69 183/79/69 180/75/69
f 185/80/70 186/82/70 187/81/70 183/79/70
f 184/78/71 189/84/71 188/83/71 182/77/71
f 189/84/72 193/86/72 192/85/72 188/83/72
f 186/82/73 191/88/73 190/87/73 187/81/73
f 191/88/74 158/90/74 159/89/74 190/87/74
f 193/86/75 150/92/75 151/91/75 192/85/75
f 134/93/76 69/102/76 137/101/76 138/100/76 139/99/76 140/98/76 141/97/76 142/96/76 143/95/76 194/94/76
f 135/55/56 134/93/56 194/94/56 144/53/56 195/54/56
f 197/35/77 230/50/77 231/49/77 233/48/77 232/47/77 213/46/77 214/45/77 215/44/77 216/43/77 217/42/77 218/41/77 235/40/77 234/39/77 221/38/77 222/37/77 223/36/77
f 224/51/78 262/55/78 263/54/78 205/53/78 206/52/78
f 225/56/79 227/60/79 208/59/79 209/58/79 226/57/79
f 227/60/80 224/51/80 206/52/80 207/61/80 208/59/80
f 228/62/81 225/56/81 226/57/81 210/64/81 229/63/81
f 230/50/82 228/62/82 229/63/82 231/49/82
f 233/48/83 237/66/83 236/65/83 232/47/83
f 235/40/84 239/68/84 238/67/84 234/39/84
f 237/66/85 241/70/85 240/69/85 236/65/85
f 239/68/86 243/72/86 242/71/86 238/67/86
f 241/70/87 245/74/87 244/73/87 240/69/87
f 243/72/88 247/76/88 246/75/88 242/71/88
f 245/74/89 250/78/89 248/77/89 244/73/89
f 247/76/90 251/80/90 249/79/90 246/75/90
f 251/80/91 252/82/91 253/81/91 249/79/91
f 250/78/92 255/84/92 254/83/92 248/77/92
f 255/84/93 259/86/93 258/85/93 254/83/93
f 252/82/94 257/88/94 256/87/94 253/81/94
f 257/88/95 219/90/95 220/89/95 256/87/95
f 259/86/96 211/92/96 212/91/96 258/85/96
f 261/93/97 196/102/97 198/101/97 199/100/97 200/99/97 201/98/97 202/97/97 203/96/97 204/95/97 260/94/97
f 262/55/98 261/93/98 260/94/98 205/53/98 263/54/98
f 197/35/99 289/36/99 288/37/99 287/38/99 295/39/99 296/40/99 284/41/99 283/42/99 282/43/99 281/44/99 280/45/99 279/46/99 293/47/99 294/48/99 292/49/99 230/50/99
f 224/51/100 272/52/100 271/53/100 322/54/100 262/55/100
f 225/56/101 290/57/101 275/58/101 274/59/101 227/60/101
f 227/60/102 274/59/102 273/61/102 272/52/102 224/51/102
f 228/62/103 291/63/103 276/64/103 290/57/103 225/56/103
f 230/50/104 292/49/104 291/63/104 228/62/104
f 294/48/105 293/47/105 297/65/105 298/66/105
f 296/40/106 295/39/106 299/67/106 300/68/106
f 298/66/107 297/65/107 301/69/107 302/70/107
f 300/68/108 299/67/108 303/71/108 304/72/108
f 302/70/109 301/69/109 305/73/109 306/74/109
f 304/72/110 303/71/110 307/75/110 308/76/110
f 306/74/111 305/73/111 309/77/111 311/78/111
f 308/76/112 307/75/112 310/79/112 312/80/112
f 312/80/113 310/79/113 314/81/113 313/82/113
f 311/78/114 309/77/114 315/83/114 316/84/114
f 316/84/115 315/83/115 319/85/115 320/86/115
f 313/82/116 314/81/116 317/87/116 318/88/116
f 318/88/117 317/87/117 286/89/117 285/90/117
f 320/86/118 319/85/118 278/91/118 277/92/118
f 261/93/119 321/94/119 270/95/119 269/96/119 268/97/119 267/98/119 266/99/119 265/100/119 264/101/119 196/102/119
f 262/55/120 322/54/120 271/53/120 321/94/120 261/93/120
f 69/102/121 71/101/121 198/101/121 196/102/121
f 71/101/122 72/100/122 199/100/122 198/101/122
f 72/100/123 73/99/123 200/99/123 199/100/123
f 73/99/124 74/98/124 201/98/124 200/99/124
f 74/98/125 75/97/125 202/97/125 201/98/125
f 75/97/126 76/96/126 203/96/126 202/97/126
f 76/96/127 77/95/127 204/95/127 203/96/127
f 133/94/128 78/53/128 205/53/128 260/94/128
f 78/53/129 79/52/129 206/52/129 205/53/129
f 79/52/130 80/61/130 207/61/130 206/52/130
f 80/61/131 81/59/131 208/59/131 207/61/131
f 81/59/132 82/58/132 209/58/132 208/59/132
f 99/57/133 83/64/133 210/64/133 226/57/133
f 132/86/134 84/92/134 211/92/134 259/86/134
f 84/92/135 85/91/135 212/91/135 211/92/135
f 105/47/136 86/46/136 213/46/136 232/47/136
f 86/46/137 87/45/137 214/45/137 213/46/137
f 87/45/138 88/44/138 215/44/138 214/45/138
f 88/44/139 89/43/139 216/43/139 215/44/139
f 89/43/140 90/42/140 217/42/140 216/43/140
f 90/42/141 91/41/141 218/41/141 217/42/141
f 130/88/142 92/90/142 219/90/142 257/88/142
f 92/90/143 93/89/143 220/89/143 219/90/143
f 107/39/144 94/38/144 221/38/144 234/39/144
f 94/38/145 95/37/145 222/37/145 221/38/145
f 95/37/146 96/36/146 223/36/146 222/37/146
f 96/36/147 70/35/147 197/35/147 223/36/147
f 82/58/148 99/57/148 226/57/148 209/58/148
f 83/64/149 102/63/149 229/63/149 210/64/149
f 102/63/150 104/49/150 231/49/150 229/63/150
f 109/65/151 105/47/151 232/47/151 236/65/151
f 104/49/152 106/48/152 233/48/152 231/49/152
f 111/67/153 107/39/153 234/39/153 238/67/153
f 91/41/154 108/40/154 235/40/154 218/41/154
f 113/69/155 109/65/155 236/65/155 240/69/155
f 106/48/156 110/66/156 237/66/156 233/48/156
f 115/71/157 111/67/157 238/67/157 242/71/157
f 108/40/158 112/68/158 239/68/158 235/40/158
f 117/73/159 113/69/159 240/69/159 244/73/159
f 110/66/160 114/70/160 241/70/160 237/66/160
f 119/75/161 115/71/161 242/71/161 246/75/161
f 112/68/162 116/72/162 243/72/162 239/68/162
f 121/77/163 117/73/163 244/73/163 248/77/163
f 114/70/164 118/74/164 245/74/164 241/70/164
f 122/79/165 119/75/165 246/75/165 249/79/165
f 116/72/166 120/76/166 247/76/166 243/72/166
f 127/83/167 121/77/167 248/77/167 254/83/167
f 126/81/168 122/79/168 249/79/168 253/81/168
f 118/74/169 123/78/169 250/78/169 245/74/169
f 120/76/170 124/80/170 251/80/170 247/76/170
f 124/80/171 125/82/171 252/82/171 251/80/171
f 129/87/172 126/81/172 253/81/172 256/87/172
f 131/85/173 127/83/173 254/83/173 258/85/173
f 123/78/174 128/84/174 255/84/174 250/78/174
f 93/89/175 129/87/175 256/87/175 220/89/175
f 125/82/176 130/88/176 257/88/176 252/82/176
f 85/91/177 131/85/177 258/85/177 212/91/177
f 128/84/178 132/86/178 259/86/178 255/84/178
f 77/95/179 133/94/179 260/94/179 204/95/179
f 137/101/180 69/102/180 196/102/180 264/101/180
f 138/100/181 137/101/181 264/101/181 265/100/181
f 139/99/182 138/100/182 265/100/182 266/99/182
f 140/98/183 139/99/183 266/99/183 267/98/183
f 141/97/184 140/98/184 267/98/184 268/97/184
f 142/96/185 141/97/185 268/97/185 269/96/185
f 143/95/186 142/96/186 269/96/186 270/95/186
f 144/53/187 194/94/187 321/94/187 271/53/187
f 145/52/188 144/53/188 271/53/188 272/52/188
f 146/61/189 145/52/189 272/52/189 273/61/189
f 147/59/190 146/61/190 273/61/190 274/59/190
f 148/58/191 147/59/191 274/59/191 275/58/191
f 149/64/192 163/57/192 290/57/192 276/64/192
f 150/92/193 193/86/193 320/86/193 277/92/193
f 151/91/135 150/92/135 277/92/135 278/91/135
f 152/46/194 166/47/194 293/47/194 279/46/194
f 153/45/195 152/46/195 279/46/195 280/45/195
f 154/44/196 153/45/196 280/45/196 281/44/196
f 155/43/197 154/44/197 281/44/197 282/43/197
f 156/42/198 155/43/198 282/43/198 283/42/198
f 157/41/199 156/42/199 283/42/199 284/41/199
f 158/90/200 191/88/200 318/88/200 285/90/200
f 159/89/201 158/90/201 285/90/201 286/89/201
f 160/38/202 168/39/202 295/39/202 287/38/202
f 161/37/203 160/38/203 287/38/203 288/37/203
f 162/36/204 161/37/204 288/37/204 289/36/204
f 70/35/205 162/36/205 289/36/205 197/35/205
f 163/57/206 148/58/206 275/58/206 290/57/206
f 164/63/207 149/64/207 276/64/207 291/63/207
f 165/49/208 164/63/208 291/63/208 292/49/208
f 166/47/209 170/65/209 297/65/209 293/47/209
f 167/48/210 165/49/210 292/49/210 294/48/210
f 168/39/211 172/67/211 299/67/211 295/39/211
f 169/40/212 157/41/212 284/41/212 296/40/212
f 170/65/213 174/69/213 301/69/213 297/65/213
f 171/66/214 167/48/214 294/48/214 298/66/214
f 172/67/215 176/71/215 303/71/215 299/67/215
f 173/68/216 169/40/216 296/40/216 300/68/216
f 174/69/217 178/73/217 305/73/217 301/69/217
f 175/70/218 171/66/218 298/66/218 302/70/218
f 176/71/219 180/75/219 307/75/219 303/71/219
f 177/72/220 173/68/220 300/68/220 304/72/220
f 178/73/221 182/77/221 309/77/221 305/73/221
f 179/74/222 175/70/222 302/70/222 306/74/222
f 180/75/223 183/79/223 310/79/223 307/75/223
f 181/76/224 177/72/224 304/72/224 308/76/224
f 182/77/225 188/83/225 315/83/225 309/77/225
f 183/79/226 187/81/226 314/81/226 310/79/226
f 184/78/227 179/74/227 306/74/227 311/78/227
f 185/80/228 181/76/228 308/76/228 312/80/228
f 186/82/229 185/80/229 312/80/229 313/82/229
f 187/81/230 190/87/230 317/87/230 314/81/230
f 188/83/231 192/85/231 319/85/231 315/83/231
f 189/84/232 184/78/232 311/78/232 316/84/232
f 190/87/233 159/89/233 286/89/233 317/87/233
f 191/88/234 186/82/234 313/82/234 318/88/234
f 192/85/235 151/91/235 278/91/235 319/85/235
f 193/86/236 189/84/236 316/84/236 320/86/236
f 194/94/237 143/95/237 270/95/237 321/94/237
